<?xml version="1.0" standalone="no"?>
<!DOCTYPE svg PUBLIC "-//W3C//DTD SVG 20010904//EN"
 "http://www.w3.org/TR/2001/REC-SVG-20010904/DTD/svg10.dtd">
<svg version="1.0" xmlns="http://www.w3.org/2000/svg"
 width="776.000000pt" height="236.000000pt" viewBox="0 0 776.000000 236.000000"
 preserveAspectRatio="xMidYMid meet">

<g transform="translate(0.000000,236.000000) scale(0.100000,-0.100000)"
fill="#000000" stroke="none">
<path d="M1090 2184 c-36 -8 -211 -60 -390 -117 -233 -73 -325 -107 -325 -117
0 -11 92 -44 323 -117 380 -121 449 -137 521 -123 67 12 723 219 735 231 6 6
6 12 0 18 -12 12 -718 228 -764 234 -19 2 -64 -2 -100 -9z m175 -125 c92 -12
152 -33 182 -61 77 -72 -60 -138 -286 -138 -120 0 -196 12 -253 41 -77 39 -71
85 16 125 83 38 216 51 341 33z"/>
<path d="M294 1890 c-55 -22 -54 -13 -54 -564 0 -499 0 -509 21 -543 11 -18
33 -39 47 -47 15 -7 185 -64 379 -126 252 -81 359 -111 378 -106 14 4 34 21
45 39 19 31 20 53 20 538 l0 506 -23 34 c-12 19 -34 39 -47 46 -27 13 -727
233 -738 232 -4 0 -17 -4 -28 -9z m394 -325 c220 -102 328 -483 189 -667 -92
-122 -236 -112 -363 25 -190 205 -192 550 -4 645 57 29 112 28 178 -3z"/>
<path d="M2689 1743 c-11 -12 -15 -72 -17 -264 l-3 -248 -26 -21 c-50 -39
-113 -12 -113 50 0 58 -60 88 -108 54 -46 -32 -20 -163 43 -212 14 -11 48 -25
75 -32 100 -24 196 12 237 89 22 43 23 51 23 311 0 193 -3 269 -12 278 -18 18
-83 15 -99 -5z"/>
<path d="M5219 1719 c-30 -11 -39 -33 -39 -101 0 -46 -1 -48 -29 -48 -39 0
-61 -24 -61 -64 0 -40 15 -56 56 -56 l32 0 4 -137 c6 -207 33 -246 172 -247
60 0 71 3 87 23 23 28 24 49 3 79 -12 18 -25 22 -63 22 -29 0 -53 6 -60 14 -8
9 -11 52 -9 127 l3 114 55 3 c65 4 80 14 80 57 0 46 -26 65 -88 65 l-52 0 0
64 c0 39 -5 67 -12 74 -22 16 -52 21 -79 11z"/>
<path d="M5900 1723 c-29 -10 -40 -37 -40 -95 l0 -58 -34 0 c-37 0 -51 -12
-61 -51 -9 -37 22 -72 63 -71 l32 1 0 -132 c0 -155 16 -204 72 -233 34 -18
124 -23 165 -10 27 9 40 48 27 85 -8 23 -16 26 -59 29 -27 2 -55 8 -62 14 -9
7 -13 45 -13 129 l0 118 57 3 c49 3 59 6 69 27 13 26 3 69 -19 83 -7 4 -33 8
-59 8 l-48 0 0 64 c0 39 -5 68 -13 74 -16 14 -58 22 -77 15z"/>
<path d="M2930 1567 c-25 -13 -25 -13 -28 -170 -1 -90 2 -175 8 -198 17 -61
63 -106 128 -125 112 -33 225 3 272 86 23 42 25 56 28 210 4 188 -1 204 -61
204 -63 0 -67 -9 -67 -171 0 -187 -12 -213 -96 -213 -24 0 -43 8 -59 25 -24
23 -25 28 -25 173 0 103 -4 153 -12 165 -18 23 -59 29 -88 14z"/>
<path d="M3586 1570 c-95 -30 -166 -132 -166 -238 0 -75 20 -123 75 -178 42
-43 61 -54 107 -64 64 -14 107 -9 162 21 33 17 38 18 32 4 -3 -9 -6 -26 -6
-37 0 -11 -13 -33 -29 -49 -26 -26 -37 -29 -89 -29 -47 0 -67 5 -96 25 -20 14
-47 25 -60 25 -48 0 -72 -62 -41 -106 26 -38 111 -67 197 -67 66 -1 85 4 135
29 48 24 62 38 85 83 l28 53 0 258 c0 287 1 284 -67 278 -27 -2 -41 -9 -47
-24 l-10 -21 -33 19 c-37 22 -133 32 -177 18z m139 -126 c89 -42 97 -173 13
-224 -85 -52 -188 11 -188 114 0 48 19 80 64 107 38 23 67 24 111 3z"/>
<path d="M6346 1565 c-223 -79 -221 -413 3 -490 217 -74 412 141 321 353 -51
119 -199 182 -324 137z m162 -133 c32 -21 52 -64 52 -112 0 -79 -51 -133 -125
-133 -76 0 -125 54 -125 136 0 107 109 167 198 109z"/>
<path d="M6840 1557 c-57 -30 -83 -77 -77 -140 6 -67 42 -102 142 -136 90 -30
114 -54 89 -89 -24 -35 -92 -31 -129 8 -49 51 -105 37 -105 -26 0 -66 103
-122 208 -111 96 10 152 61 159 144 7 85 -34 128 -166 172 -61 21 -77 30 -79
48 -7 51 83 67 124 22 19 -21 64 -25 82 -7 21 21 14 63 -15 90 -57 53 -160 64
-233 25z"/>
</g>
</svg>
